<svg xmlns="http://www.w3.org/2000/svg" width="24" height="24" viewBox="0 0 6.35 6.35"><g style="opacity:1"><path d="M.486.438v5.56h5.307V.438Zm.325.326h4.658v4.908H.81Z" style="baseline-shift:baseline;display:inline;overflow:visible;vector-effect:none;paint-order:stroke markers fill;stop-color:#000;stop-opacity:1"/><path d="M.648.6h4.983v5.235H.648Z" style="baseline-shift:baseline;display:inline;overflow:visible;vector-effect:none;fill:#f9f9f9;paint-order:stroke markers fill;stop-color:#000;stop-opacity:1"/></g><g style="opacity:1"><path d="m3.852.98-.338.061c-.83.148-1.428.703-1.774 1.33-.345.627-.458 1.326-.285 1.836.164.483.49.807.865.992a2.2 2.2 0 0 0 1.178.197c.383-.039.727-.177.967-.43.24-.252.365-.615.332-1.052a1.47 1.47 0 0 0-.486-1.02c-.245-.225-.518-.384-.747-.628-.113-.122-.108-.35-.046-.575.061-.224.166-.412.166-.412Zm-.643.653c-.07.266-.112.608.12.855.265.285.552.453.76.645.21.192.352.395.384.806.028.365-.07.62-.244.803-.175.183-.439.299-.764.332a1.87 1.87 0 0 1-1-.166 1.35 1.35 0 0 1-.701-.806c-.128-.376-.05-1.015.26-1.575.236-.429.706-.682 1.185-.894" style="baseline-shift:baseline;display:inline;overflow:visible;vector-effect:none;fill:#010101;paint-order:stroke markers fill;stop-color:#000;stop-opacity:1"/><path d="M3.542 1.2c-1.549.277-2.233 2.07-1.933 2.954s1.165 1.154 1.873 1.081 1.214-.507 1.153-1.309c-.07-.897-.695-1.02-1.19-1.549-.352-.377.097-1.176.097-1.176" style="baseline-shift:baseline;display:inline;overflow:visible;vector-effect:none;fill:#418cce;paint-order:stroke markers fill;stop-color:#000;stop-opacity:1"/></g></svg>